<svg viewBox="0 0 326 332" xmlns="http://www.w3.org/2000/svg">
    <rect width="100%" height="100%" rx="10%" fill="#101010"/>
    <path d="M325.269 171.789C325.519 171.789 246.619 126.436 246.388 125.102C244.603 115.463 242.355 99.5449 231.471 91.3102C222.104 84.285 158.87 55.2948 158.745 54.9924C147.102 37.4498 136.785 19.0683 127.877 0C119.419 6.34611 112.539 14.5479 107.771 23.97C103.003 33.3922 100.475 43.7818 100.382 54.3344C69.3193 58.772 40.165 71.9299 16.3259 92.2707C78.1503 78.1491 95.9571 91.1679 95.9571 91.1679C75.716 94.7622 56.2119 101.673 38.2365 111.621C11.8831 126.063 0 143.404 0 143.404C0 143.404 59.8438 126.347 105.771 142.941C84.3535 145.953 64.4455 155.654 48.9064 170.651C144.096 182.407 191.04 264.753 210.792 331.289C218.054 212.945 158.941 168.001 158.941 168.001C176.106 169.228 197.695 182.531 211.505 202.327C253.614 197.596 277.059 210.455 276.863 210.455C276.399 210.455 299.63 203.34 316.009 195.817C314.6 193.701 308.676 186.355 305.304 182.247C305.767 182.283 318.721 181.518 325.269 171.789ZM193.788 119.411C194.716 119.18 215.342 113.4 221.23 115.623C226.582 117.633 226.689 132.821 226.689 132.821C226.689 132.821 214.467 134.529 193.788 119.411Z" fill="#ffffff" />
</svg>
